<?xml version="1.0" encoding="UTF-8" standalone="no"?>
<svg
   xmlns:dc="http://purl.org/dc/elements/1.1/"
   xmlns:cc="http://creativecommons.org/ns#"
   xmlns:rdf="http://www.w3.org/1999/02/22-rdf-syntax-ns#"
   xmlns:svg="http://www.w3.org/2000/svg"
   xmlns="http://www.w3.org/2000/svg"
   width="126"
   height="130"
   viewBox="0 0 126 130"
   version="1.1"
   id="svg2954">
  <metadata
     id="metadata2960">
    <rdf:RDF>
      <cc:Work
         rdf:about="">
        <dc:format>image/svg+xml</dc:format>
        <dc:type
           rdf:resource="http://purl.org/dc/dcmitype/StillImage" />
        <dc:title></dc:title>
      </cc:Work>
    </rdf:RDF>
  </metadata>
  <defs
     id="defs2958" />
  <g
     fill="none"
     fill-rule="evenodd"
     stroke="#FF111F"
     stroke-linecap="round"
     stroke-linejoin="round"
     stroke-width="3"
     id="g2952">
    <path
       d="M35.371 12.932C20.57 15.046 18.062 28.696 17.935 31.754M93.264 20.462c-4.988.296-12.246-.021-19.582-3.626-5.271-2.591-7.326-5.803-10.229-7.495C47.135-.172 27.888.65 16.586 11.337c-3.03 2.864-5.181 6.137-6.665 9.591M7.316 31.133C6.04 42.67 9.579 53.856 10.999 57.238a72.97 72.97 0 0 0 5.835 11.104c1.116 1.845 2.234 3.69 3.26 5.615a47.118 47.118 0 0 1 5.657 16.868 137.942 137.942 0 0 0 3.584 21.158c1.36 5.094 4.213 15.686 13.667 15.686 3.038 0 11.115 0 16.265-37.039.837-5.918 2.897-6.76 4.179-6.971 1.28.211 3.34 1.053 4.177 6.964 5.15 37.046 13.227 37.046 16.265 37.046 9.453 0 12.307-10.592 13.668-15.653a138.211 138.211 0 0 0 3.592-21.195 47.088 47.088 0 0 1 5.655-16.864c1.023-1.924 2.142-3.77 3.257-5.615a72.717 72.717 0 0 0 5.842-11.107c2.273-5.407 10.135-31.006-5.583-45.893C99.28.888 80.503-.66 64.768 8.418M39.984 12.004c-.032.034 0 0-.03.034"
       id="path2944" />
    <path
       d="M79.871 69.491H47.055c-3.064 0-5.571-2.512-5.571-5.582V42.912c0-3.07 2.507-5.583 5.571-5.583h32.816c3.064 0 5.572 2.513 5.572 5.583v20.997c0 3.07-2.508 5.582-5.572 5.582z"
       id="path2946" />
    <path
       d="M72.472 64.078H54.455c-3.064 0-5.572-2.512-5.572-5.583v-10.17c0-3.07 2.508-5.582 5.572-5.582h18.017c3.064 0 5.572 2.512 5.572 5.583v10.169c0 3.07-2.508 5.583-5.572 5.583z"
       id="path2948" />
    <path
       d="M124.468 33.171c0 11.177-27.313 20.24-61.005 20.24-33.692 0-61.004-9.063-61.004-20.24"
       id="path2950" />
  </g>
  <path
     style="fill:#4f39f6;stroke-width:0.00591617"
     d="m 40.429551,128.8227 c -5.12535,-1.11106 -8.854216,-5.25149 -11.278475,-12.5233 -1.850172,-5.54978 -3.834308,-15.67692 -4.67955,-23.884689 C 24.033216,88.158474 23.013231,84.01451 21.402538,79.946108 20.472873,77.597891 18.480256,73.83969 15.826471,69.429288 12.169152,63.351083 10.268439,59.54156 8.8781249,55.502994 7.6533284,51.945221 6.6221295,47.474874 6.1231496,43.559911 L 5.9106021,41.892279 4.4943602,40.410863 C 2.3296453,38.146532 1.2758483,36.09506 1.0805008,33.764956 0.99530827,32.74878 1.0081096,32.698477 1.4692576,32.23733 c 0.582484,-0.582484 1.2423573,-0.627562 1.8268546,-0.1248 0.3305746,0.284348 0.4523609,0.600281 0.63328,1.642823 0.2159283,1.244282 0.7930135,2.624119 1.4364976,3.434731 0.2910417,0.366631 0.2936742,0.349703 0.3147484,-2.023952 0.030065,-3.386341 0.2082989,-4.634097 0.7254976,-5.078972 0.5626744,-0.483993 1.3253416,-0.462922 1.8390713,0.05081 l 0.40144,0.40144 -0.092074,4.074608 c -0.050641,2.241035 -0.043198,4.464212 0.016539,4.940395 l 0.1086124,0.865788 1.5104365,0.942663 c 6.000898,3.745156 15.830514,6.893499 26.887683,8.611898 1.113174,0.172999 2.247794,0.351602 2.521379,0.396898 l 0.497425,0.08235 0.04748,-4.637184 0.04748,-4.637185 0.562514,-1.177855 c 0.741864,-1.5534 1.843955,-2.655492 3.397356,-3.397356 l 1.177854,-0.562514 h 18.145799 18.1458 l 1.171351,0.578914 c 1.521262,0.751849 2.619097,1.849489 3.37131,3.370712 l 0.578914,1.170757 0.04937,4.645502 0.04936,4.645504 0.495546,-0.082 c 0.272548,-0.0451 1.392398,-0.222879 2.488553,-0.395065 11.413925,-1.792907 21.832915,-5.170895 27.272525,-8.842159 0.94651,-0.638809 1.10296,-0.812819 1.21889,-1.355637 0.21775,-1.019639 0.0263,-7.714914 -0.27832,-9.730539 C 116.48628,19.775893 111.4526,12.383074 102.85629,7.7503043 99.982487,6.2015415 95.804258,4.8548956 92.113772,4.2879855 86.012591,3.3507587 78.680879,4.1389992 72.434707,6.4037035 c -2.09865,0.7609175 -6.32441,2.771878 -6.311903,3.0037182 0.005,0.092086 0.407811,0.5047594 0.89521,0.9170533 0.487397,0.412293 1.446657,1.226316 2.131687,1.808939 4.160909,3.538887 9.872273,5.873423 16.425149,6.713827 0.813473,0.104329 3.005326,0.205181 4.870786,0.224116 3.265595,0.03315 3.405425,0.04728 3.75965,0.38006 0.762334,0.716176 0.515494,1.869769 -0.490641,2.292973 -0.502609,0.21141 -1.102168,0.234794 -4.091891,0.159598 C 83.670405,21.754278 79.138368,20.797897 74.338997,18.678707 71.1328,17.262991 69.35456,16.05713 65.333948,12.572194 60.759357,8.6070892 52.476891,5.3672773 44.541901,4.4390717 42.206059,4.1658335 37.9649,4.1312912 35.787277,4.367769 24.868998,5.5534337 16.153408,11.317504 11.823821,20.21604 11.09154,21.721085 10.88798,22.014789 10.450441,22.197604 9.7777444,22.478675 9.0517629,22.238739 8.7377844,21.63157 8.3981165,20.974726 8.4428424,20.742034 9.212855,19.159959 c 1.585049,-3.25666 3.430607,-5.862785 5.867769,-8.285917 7.814866,-7.7698811 19.521612,-11.01702606 32.155252,-8.9190254 5.036431,0.8363731 10.817261,2.8120093 15.073187,5.1513601 0.834228,0.4585494 1.093138,0.5377511 1.294964,0.3961353 0.138743,-0.097353 0.960153,-0.5641283 1.825355,-1.037278 4.344733,-2.3759883 9.724457,-4.1652887 15.007744,-4.9915876 2.498536,-0.3907678 7.9828,-0.4774905 10.644303,-0.1683185 10.669561,1.2394241 19.480921,6.435505 24.847691,14.6527561 1.78096,2.726894 3.40246,6.64011 4.25779,10.275449 0.64538,2.743034 0.91495,4.923196 1.02011,8.250234 l 0.0984,3.112512 0.50323,-0.76079 c 0.66203,-1.000866 1.0861,-2.163728 1.2197,-3.344593 0.0905,-0.800132 0.18435,-1.022627 0.567,-1.344602 0.6366,-0.535667 1.27388,-0.504637 1.86955,0.09104 0.46115,0.461147 0.47395,0.51145 0.38876,1.527626 -0.19591,2.336872 -1.2512,4.385546 -3.44288,6.683798 l -1.43934,1.50933 -0.18535,1.63473 c -0.26852,2.368203 -1.14447,6.553115 -1.97182,9.420489 -1.52414,5.282242 -3.43958,9.303207 -8.12136,17.048645 -3.68882,6.102689 -5.23543,9.371832 -6.66481,14.087753 -0.77436,2.554809 -1.26756,5.196677 -1.71481,9.185628 -1.23615,11.024817 -3.668439,21.775187 -6.048784,26.734727 -2.110266,4.39681 -5.104566,7.29508 -8.743518,8.46311 -1.540122,0.49435 -4.085322,0.6717 -5.55357,0.38696 -4.29452,-0.83281 -7.790218,-5.47371 -10.667551,-14.16226 -1.882777,-5.68533 -3.689749,-14.0936 -4.955107,-23.057267 -0.482203,-3.41588 -1.133267,-5.313013 -2.103512,-6.129421 -0.638909,-0.537605 -1.109667,-0.517099 -1.700853,0.07409 -1.025099,1.025098 -1.410271,2.32409 -2.187906,7.378688 -2.819566,18.32707 -6.202744,28.61624 -10.956933,33.32305 -2.026821,2.00663 -3.754874,2.72914 -6.473146,2.70649 -0.816889,-0.007 -1.938663,-0.11067 -2.492829,-0.23079 z m 5.230635,-3.10684 c 4.911025,-2.40274 9.152369,-14.34314 11.971941,-33.703884 0.665135,-4.567177 1.37642,-6.696742 2.725636,-8.160469 1.81903,-1.973416 4.154142,-2.027559 6.027907,-0.139768 1.494712,1.5059 2.208759,3.666405 3.000503,9.07868 2.032119,13.891341 4.956042,24.231621 8.324306,29.438421 1.005461,1.55429 2.491281,3.00769 3.611154,3.53236 0.815888,0.38225 1.076097,0.42417 2.618487,0.42179 2.125771,-0.003 3.512144,-0.40913 5.158031,-1.50997 1.874067,-1.25345 3.30706,-3.08297 4.672494,-5.96543 2.2307,-4.70906 4.519125,-15.00475 5.743314,-25.839327 1.075201,-9.515953 2.973911,-14.659587 9.271221,-25.115898 5.2118,-8.653878 7.14891,-13.385236 8.63054,-21.080037 0.22622,-1.174831 0.38825,-2.237339 0.36007,-2.361127 -0.0383,-0.168043 -0.40628,-0.02699 -1.45244,0.556699 -6.1108,3.409395 -16.653974,6.553007 -27.122127,8.086881 l -2.36764,0.346925 -0.04553,6.160524 -0.04553,6.160524 -0.562514,1.177855 c -0.909067,1.90351 -2.418154,3.210036 -4.421496,3.828013 -0.882974,0.272374 -1.856304,0.287546 -18.447128,0.287546 h -17.51497 l -0.895012,-0.341846 c -2.005618,-0.766038 -3.28743,-1.947907 -4.19789,-3.870582 l -0.511888,-1.080986 -0.04556,-6.167419 -0.04556,-6.167418 -1.433485,-0.192465 C 37.878601,52.989597 35.902395,52.662407 34.275449,52.368364 24.330188,50.570925 16.240857,47.993914 10.416168,44.767532 L 9.1317365,44.056066 v 0.394481 c 0,0.75577 1.0847775,5.774335 1.7159675,7.938675 1.30572,4.47729 3.30906,8.783362 6.712465,14.428086 3.943629,6.540713 5.38498,9.28051 6.783934,12.895267 1.550114,4.005334 2.484602,8.005956 3.016649,12.914516 1.027978,9.483939 3.139267,19.617699 5.137393,24.658439 2.060956,5.19925 4.98286,8.14044 8.759424,8.81724 0.441271,0.0791 1.414006,0.12143 2.161633,0.0941 1.104599,-0.0404 1.524538,-0.13051 2.240984,-0.48103 z M 81.613448,67.66637 c 0.432905,-0.201584 1.042127,-0.664457 1.353825,-1.028607 1.015202,-1.186034 1.050691,-1.43949 1.050691,-7.503821 0,-4.233074 -0.04266,-5.421461 -0.194611,-5.421794 -0.363106,-7.78e-4 -3.617716,0.32779 -3.97006,0.400819 -0.344219,0.07135 -0.350299,0.112586 -0.350299,2.376375 0,3.799123 -0.418756,5.126988 -2.172119,6.88775 -1.161123,1.166023 -2.253081,1.750984 -3.752468,2.010197 -0.686126,0.118617 -4.081378,0.158672 -10.734096,0.126636 l -9.730539,-0.04686 -0.934131,-0.373236 c -2.38915,-0.95459 -4.074585,-2.899074 -4.574974,-5.27814 -0.09544,-0.453765 -0.173529,-1.906173 -0.173529,-3.227573 0,-2.366769 -0.0052,-2.403597 -0.3503,-2.4733 -0.443356,-0.08955 -3.448675,-0.402242 -3.866039,-0.402242 -0.308651,0 -0.312329,0.07884 -0.266876,5.721557 0.04449,5.523396 0.05775,5.743126 0.382745,6.344311 0.447406,0.827622 1.218899,1.546119 2.076518,1.93388 0.691034,0.312442 0.937583,0.316792 18.05988,0.318665 l 17.359281,0.0019 0.787101,-0.366516 z m -7.481711,-5.370267 c 0.936808,-0.427048 1.566053,-1.028548 2.011847,-1.923139 0.383609,-0.769806 0.401326,-0.921271 0.401326,-3.431037 V 54.31625 l -0.661676,0.08818 c -3.804654,0.507025 -19.70687,0.508479 -24.774986,0.0023 l -0.915703,-0.09146 0.07148,2.53999 c 0.05927,2.106203 0.125039,2.659639 0.385091,3.240588 0.451027,1.00758 1.034359,1.63143 1.953968,2.089692 l 0.805359,0.401326 10.050269,-0.0034 c 9.390118,-0.0032 10.091176,-0.02207 10.673025,-0.287305 z M 70.317365,51.84636 c 2.012276,-0.08096 4.236677,-0.192892 4.943114,-0.248731 l 1.284431,-0.101523 v -2.143449 c 0,-2.043784 -0.02022,-2.182146 -0.434798,-2.975746 -0.485965,-0.930242 -1.445187,-1.752094 -2.332608,-1.998553 -0.371329,-0.103128 -4.138636,-0.161365 -10.474481,-0.16192 l -9.89458,-8.69e-4 -0.805359,0.401326 c -1.686022,0.840182 -2.224361,1.953864 -2.334054,4.828568 l -0.0784,2.054583 1.695105,0.116306 c 5.259976,0.360905 12.830318,0.455375 18.43163,0.230008 z M 47.431138,49.516645 c 0,-0.937702 0.07809,-2.076175 0.173529,-2.52994 0.597346,-2.840036 3.010832,-5.118794 5.898327,-5.569063 1.365193,-0.212884 18.590151,-0.209795 19.928144,0.0036 2.267651,0.361622 4.240414,1.795529 5.220745,3.794708 0.665717,1.357581 0.851111,2.314309 0.851111,4.392145 v 1.613481 h 0.401608 c 0.479534,0 3.265217,-0.296044 3.763063,-0.399913 l 0.350299,-0.07308 v -4.250737 c 0,-4.688284 -0.07149,-5.156555 -0.949937,-6.222265 -0.260802,-0.316397 -0.801811,-0.767863 -1.202243,-1.003256 l -0.728059,-0.42799 H 63.467066 45.796407 l -0.728059,0.42799 c -0.400433,0.235393 -0.941441,0.686859 -1.202243,1.003256 -0.878539,1.065821 -0.949937,1.533717 -0.949937,6.225231 0,2.339536 0.01752,4.260995 0.03892,4.26991 0.122896,0.05117 3.403976,0.414588 3.892215,0.431107 l 0.583833,0.01975 z"
     id="path2962" />
  <path
     style="fill:#4f39f6;stroke-width:0.00591617"
     d="m 17.205136,32.92559 c -0.665401,-0.361481 -0.772785,-0.941483 -0.505977,-2.732863 0.716766,-4.812435 3.033822,-9.526689 6.275799,-12.768667 2.872013,-2.872013 6.855729,-4.922512 11.041758,-5.683417 1.331177,-0.241971 1.497368,-0.243512 1.969715,-0.01827 0.705337,0.336352 0.979942,1.134888 0.625786,1.81975 -0.300255,0.580631 -0.545679,0.692385 -2.250737,1.024874 -5.863314,1.143353 -10.231701,4.463143 -12.893176,9.798268 -1.067628,2.140141 -1.642658,4.14665 -2.157644,7.528889 -0.158021,1.037822 -1.175904,1.536452 -2.105524,1.031432 z"
     id="path2964" />
  <path
     style="fill:#4f39f6;stroke-width:0.00591617"
     d="m 39.166149,13.189659 c -0.726367,-0.557687 -0.794539,-1.507376 -0.154173,-2.147743 0.611858,-0.611857 1.280358,-0.611857 1.892216,0 0.602857,0.602858 0.620334,1.361158 0.04464,1.936854 -0.450493,0.450492 -1.334412,0.555059 -1.782681,0.210889 z"
     id="path2966" />
</svg>
